# xmcd
#
# Track frame offsets: 
#        150
#        19821
#        37497
#        49751
#        69175
#        84120
#        95826
#        114778
#        128885
#        148205
#        160641
#
# Disc length: 2353 seconds
#
# Revision: 3
# Processed by: cddbd v1.5.2PL0 Copyright (c) Steve Scherf et al.
# Submitted via: ExactAudioCopyFreeDBPlugin 1.0
#
DISCID=8f092f0b
DTITLE=Engelbert Humperdinck - 2014 - Engelbert Calling [CD 2]
DYEAR=2014
DGENRE=Country
TTITLE0=Engelbert Humperdink And Andrea Corr - Ain’t That Peculiar (wi
TTITLE0=th Andrea Corr)
TTITLE1=Engelbert Humperdink And Johnny Mathis - A Certain Smile (with
TTITLE1=Johnny Mathis)
TTITLE2=Engelbert Humperdink And Tini - Kiss Me Honey (with Tini)
TTITLE3=Engelbert Humperdink And Neil Sedaka - The Hungry Years (with 
TTITLE3=Neil Sedaka)
TTITLE4=Engelbert Humperdink And Dionne Warwick - It Matters To Me (wi
TTITLE4=th Dionne Warwick)
TTITLE5=Engelbert Humperdink And Charles Aznavour - She (with Charles 
TTITLE5=Aznavour)
TTITLE6=Engelbert Humperdink And Bev Knight - After The Lovin’ (with B
TTITLE6=everley Knight)
TTITLE7=Engelbert Humperdink And Armando Manzanero - It’s Impossible,S
TTITLE7=omos Novios (with Armando Manzanero)
TTITLE8=Engelbert Humperdink And Luis Fonsi - Quien Te Dijo Eso (with 
TTITLE8=Luis Fonsi)
TTITLE9=Engelbert Humperdink And Ron Sexsmith - Something To Hold On T
TTITLE9=o (with Ron Sexsmith)
TTITLE10=Engelbert Humperdink And Bradley Dorsey - Father And Son (wit
TTITLE10=h Bradley Dorsey)
EXTD=YEAR: 2014
EXTT0=
EXTT1=
EXTT2=
EXTT3=
EXTT4=
EXTT5=
EXTT6=
EXTT7=
EXTT8=
EXTT9=
EXTT10=
PLAYORDER=
